<svg version="1.2" xmlns="http://www.w3.org/2000/svg" viewBox="0 0 3000 2000" width="3000" height="2000">
	<title>vecteezy_programer-learning-programming-languages-by-computer-laptop_5151164</title>
	<defs>
		<clipPath clipPathUnits="userSpaceOnUse" id="cp1">
			<path d="m2046.1 429.72c-19.94-21.23-89.92-42.06-144.9-28.9-30.99 7.43-54.18 33.24-59.37 64.68-6.47 39.14-12.31 78.48-14.86 118.1-2.14 33.08-5.91 75.95 11.17 106.08 11.22 19.81 39.33 21.34 59.52 21.68 3.36 0.05 35.24-3.19 34.48-7.61 7.26 42.59 32.46 139.11 36.79 151.97 6.08 18.08 125.13-50.07 144.2-73.83 19.06-23.76-87.19-162.33-87.19-162.33 10.48-29.59 47.9-160.31 20.16-189.84z"/>
		</clipPath>
	</defs>
	<style>
		.s0 { fill: #f6f9ff } 
		.s1 { fill: #d4dfff } 
		.s2 { fill: #ffffff } 
		.s3 { fill: #b7c9f7 } 
		.s4 { opacity: .2;fill: #6880e4 } 
		.s5 { fill: #eaf2fc } 
		.s6 { fill: #6880e4 } 
		.s7 { fill: #1c056d } 
		.s8 { fill: #1b3d9e } 
		.s9 { fill: #d40221 } 
		.s10 { fill: #fe8e9c } 
		.s11 { opacity: .5;fill: #1c056d } 
		.s12 { fill: #fc476a } 
		.s13 { fill: #e57492 } 
		.s14 { fill: #5f4145 } 
		.s15 { fill: #68a9fd } 
	</style>
	<g id="Layer 1">
		<path id="&lt;Path&gt;" class="s0" d="m2898 1391.7c12.1-25.2 22.8-51.1 32.1-77.7 68.7-196.4 39.1-441.4-89.9-609.8-65.3-85.4-156.7-147.3-262.6-169.2-159-32.9-314.2 37.5-473.2 28.3-103.7-6-202.2-46.9-295.7-92.4-252.4-122.9-491.5-281.5-765.6-354.3-214.8-57.1-469.1-44.8-651.4 93.8-307.8 233.9-290.4 670.2-159.3 994.1 38.1 94.1 88.2 184.4 153.2 262.7 224.8 270.7 557.8 372 899.1 394.3 297.6 19.4 605 8.8 903.1-2 299.1-10.9 581.2-199.1 710.2-467.8z"/>
		<g id="&lt;Group&gt;">
			<g id="&lt;Group&gt;">
				<path id="&lt;Path&gt;" class="s1" d="m550.1 1322.5h-498.5c-14.1 0-25.6-11.5-25.6-25.7v-196.5c0-14.2 11.5-25.7 25.6-25.7h498.5c14.1 0 25.6 11.5 25.6 25.7v196.5c0 14.2-11.5 25.7-25.6 25.7z"/>
				<path id="&lt;Path&gt;" class="s2" d="m161.3 1124.9h-97c-1.6 0-2.8-1.3-2.8-2.8v-18.3c0-1.6 1.2-2.8 2.8-2.8h97c1.6 0 2.9 1.2 2.9 2.8v18.3c0 1.5-1.3 2.8-2.9 2.8z"/>
				<path id="&lt;Path&gt;" class="s3" d="m527.9 1124.9h-343.7c-2.9 0-5.3-2.4-5.3-5.3v-13.3c0-3 2.4-5.3 5.3-5.3h343.7c2.9 0 5.3 2.3 5.3 5.3v13.3c0 2.9-2.4 5.3-5.3 5.3z"/>
				<path id="&lt;Path&gt;" class="s2" d="m296.5 1164.8h-230.7c-2.4 0-4.3-1.9-4.3-4.3v-15.3c0-2.4 1.9-4.3 4.3-4.3h230.7c2.4 0 4.3 1.9 4.3 4.3v15.3c0 2.4-1.9 4.3-4.3 4.3z"/>
				<path id="&lt;Path&gt;" class="s2" d="m529 1164.8h-209.7c-2.3 0-4.2-1.8-4.2-4.1v-15.7c0-2.3 1.9-4.1 4.2-4.1h209.7c2.3 0 4.2 1.8 4.2 4.1v15.7c0 2.3-1.9 4.1-4.2 4.1z"/>
				<path id="&lt;Path&gt;" class="s3" d="m226.6 1204.7h-161.5c-2 0-3.6-1.6-3.6-3.6v-16.7c0-2 1.6-3.6 3.6-3.6h161.5c2 0 3.7 1.6 3.7 3.6v16.7c0 2-1.7 3.6-3.7 3.6z"/>
				<path id="&lt;Path&gt;" class="s4" d="m407.9 1204.7h-161.5c-2 0-3.6-1.6-3.6-3.6v-16.7c0-2 1.6-3.6 3.6-3.6h161.5c2 0 3.7 1.6 3.7 3.6v16.7c0 2-1.7 3.6-3.7 3.6z"/>
				<path id="&lt;Path&gt;" class="s2" d="m530.3 1204.7h-98.9c-1.5 0-2.8-1.3-2.8-2.8v-18.2c0-1.6 1.3-2.9 2.8-2.9h98.9c1.6 0 2.9 1.3 2.9 2.9v18.2c0 1.5-1.3 2.8-2.9 2.8z"/>
				<path id="&lt;Path&gt;" class="s4" d="m527.1 1244.7h-459.5c-3.4 0-6.1-2.8-6.1-6.2v-11.7c0-3.4 2.7-6.1 6.1-6.1h459.5c3.4 0 6.1 2.7 6.1 6.1v11.7c0 3.4-2.7 6.2-6.1 6.2z"/>
				<path id="&lt;Path&gt;" class="s2" d="m296.5 1284.6h-230.7c-2.4 0-4.3-2-4.3-4.4v-15.2c0-2.4 1.9-4.4 4.3-4.4h230.7c2.4 0 4.3 2 4.3 4.4v15.2c0 2.4-1.9 4.4-4.3 4.4z"/>
				<path id="&lt;Path&gt;" class="s3" d="m529.1 1284.6h-201.1c-2.3 0-4.1-1.9-4.1-4.1v-15.8c0-2.3 1.8-4.1 4.1-4.1h201.1c2.3 0 4.1 1.8 4.1 4.1v15.8c0 2.2-1.8 4.1-4.1 4.1z"/>
			</g>
			<g id="&lt;Group&gt;">
				<path id="&lt;Path&gt;" class="s1" d="m419.2 1037.5h-367.9c-14 0-25.3-11.4-25.3-25.3v-640.4c0-14 11.3-25.3 25.3-25.3h367.9c14 0 25.3 11.3 25.3 25.3v640.4c0 13.9-11.3 25.3-25.3 25.3z"/>
				<path id="&lt;Path&gt;" class="s3" d="m405.5 406.6h-340.6c-2.6 0-4.7-2.1-4.7-4.8v-15.7c0-2.6 2.1-4.7 4.7-4.7h340.6c2.6 0 4.8 2.1 4.8 4.7v15.7c0 2.7-2.2 4.8-4.8 4.8z"/>
				<path id="&lt;Path&gt;" class="s0" d="m405.5 447.1h-340.6c-2.6 0-4.7-2.2-4.7-4.8v-15.7c0-2.6 2.1-4.8 4.7-4.8h340.6c2.6 0 4.8 2.2 4.8 4.8v15.7c0 2.6-2.2 4.8-4.8 4.8z"/>
				<path id="&lt;Path&gt;" class="s4" d="m297.2 487.5h-233.1c-2.2 0-3.9-1.8-3.9-3.9v-17.4c0-2.2 1.7-3.9 3.9-3.9h233.1c2.2 0 4 1.7 4 3.9v17.4c0 2.1-1.8 3.9-4 3.9z"/>
				<path id="&lt;Path&gt;" class="s0" d="m405.5 528h-340.6c-2.6 0-4.7-2.2-4.7-4.8v-15.7c0-2.6 2.1-4.8 4.7-4.8h340.6c2.6 0 4.8 2.2 4.8 4.8v15.7c0 2.6-2.2 4.8-4.8 4.8z"/>
				<path id="&lt;Path&gt;" class="s0" d="m406.8 568.4h-180.1c-1.9 0-3.5-1.5-3.5-3.5v-18.2c0-2 1.6-3.5 3.5-3.5h180.1c1.9 0 3.5 1.5 3.5 3.5v18.2c0 2-1.6 3.5-3.5 3.5z"/>
				<path id="&lt;Path&gt;" class="s4" d="m201.4 568.4h-138.2c-1.7 0-3-1.3-3-3v-19.2c0-1.7 1.3-3 3-3h138.2c1.7 0 3.1 1.3 3.1 3v19.2c0 1.7-1.4 3-3.1 3z"/>
				<path id="&lt;Path&gt;" class="s0" d="m405.5 608.9h-340.6c-2.6 0-4.7-2.2-4.7-4.8v-15.7c0-2.6 2.1-4.8 4.7-4.8h340.6c2.6 0 4.8 2.2 4.8 4.8v15.7c0 2.6-2.2 4.8-4.8 4.8z"/>
				<path id="&lt;Path&gt;" class="s0" d="m405.5 649.3h-340.6c-2.6 0-4.7-2.1-4.7-4.7v-15.8c0-2.6 2.1-4.7 4.7-4.7h340.6c2.6 0 4.8 2.1 4.8 4.7v15.8c0 2.6-2.2 4.7-4.8 4.7z"/>
				<path id="&lt;Path&gt;" class="s4" d="m405.5 689.8h-340.6c-2.6 0-4.7-2.2-4.7-4.8v-15.7c0-2.6 2.1-4.8 4.7-4.8h340.6c2.6 0 4.8 2.2 4.8 4.8v15.7c0 2.6-2.2 4.8-4.8 4.8z"/>
				<path id="&lt;Path&gt;" class="s0" d="m405.5 730.2h-340.6c-2.6 0-4.7-2.1-4.7-4.7v-15.8c0-2.6 2.1-4.7 4.7-4.7h340.6c2.6 0 4.8 2.1 4.8 4.7v15.8c0 2.6-2.2 4.7-4.8 4.7z"/>
				<path id="&lt;Path&gt;" class="s0" d="m168.6 770.7h-105.7c-1.5 0-2.7-1.2-2.7-2.7v-19.9c0-1.5 1.2-2.7 2.7-2.7h105.7c1.5 0 2.7 1.2 2.7 2.7v19.9c0 1.5-1.2 2.7-2.7 2.7z"/>
				<path id="&lt;Path&gt;" class="s4" d="m328.4 770.7h-128.7c-1.7 0-3-1.3-3-3v-19.3c0-1.6 1.3-3 3-3h128.7c1.6 0 2.9 1.4 2.9 3v19.3c0 1.7-1.3 3-2.9 3z"/>
				<path id="&lt;Path&gt;" class="s0" d="m405.5 811.1h-340.6c-2.6 0-4.7-2.1-4.7-4.7v-15.8c0-2.6 2.1-4.7 4.7-4.7h340.6c2.6 0 4.8 2.1 4.8 4.7v15.8c0 2.6-2.2 4.7-4.8 4.7z"/>
				<path id="&lt;Path&gt;" class="s3" d="m359.5 851.6h-294.9c-2.4 0-4.4-2-4.4-4.5v-16.3c0-2.5 2-4.5 4.4-4.5h294.9c2.5 0 4.5 2 4.5 4.5v16.3c0 2.5-2 4.5-4.5 4.5z"/>
				<path id="&lt;Path&gt;" class="s0" d="m405.5 892h-340.6c-2.6 0-4.7-2.1-4.7-4.7v-15.7c0-2.7 2.1-4.8 4.7-4.8h340.6c2.6 0 4.8 2.1 4.8 4.8v15.7c0 2.6-2.2 4.7-4.8 4.7z"/>
				<path id="&lt;Path&gt;" class="s4" d="m193.7 932.5h-130.5c-1.7 0-3-1.3-3-3v-19.3c0-1.6 1.3-3 3-3h130.5c1.7 0 3 1.4 3 3v19.3c0 1.7-1.3 3-3 3z"/>
				<path id="&lt;Path&gt;" class="s3" d="m406.7 932.5h-192.6c-2 0-3.6-1.6-3.6-3.6v-18.1c0-2 1.6-3.6 3.6-3.6h192.6c2 0 3.6 1.6 3.6 3.6v18.1c0 2-1.6 3.6-3.6 3.6z"/>
				<path id="&lt;Path&gt;" class="s0" d="m405.5 972.9h-340.6c-2.6 0-4.7-2.1-4.7-4.7v-15.7c0-2.7 2.1-4.8 4.7-4.8h340.6c2.6 0 4.8 2.1 4.8 4.8v15.7c0 2.6-2.2 4.7-4.8 4.7z"/>
				<path id="&lt;Path&gt;" class="s0" d="m405.5 1013.4h-340.6c-2.6 0-4.7-2.1-4.7-4.8v-15.7c0-2.6 2.1-4.8 4.7-4.8h340.6c2.6 0 4.8 2.2 4.8 4.8v15.7c0 2.7-2.2 4.8-4.8 4.8z"/>
			</g>
		</g>
		<path id="&lt;Path&gt;" class="s5" d="m2622 1524.6q4-7 7.7-14.1c75.5-143.5 118.9-303.8 126.1-465.7-77.7 71.2-155.9 144.7-221.7 227.1-50.3 62.9-93.4 132.8-120.8 208.2 48.3-178.3 73.6-363.4 68.4-547.9-183.4 254.6-306.9 551.5-359.9 860.8l428.8-4.8c157.7-93.9 280.3-245.3 339.3-419.1-98.1 33.1-190.7 86.1-267.9 155.5z"/>
		<g id="&lt;Clip Group&gt;">
			<path id="&lt;Path&gt;" class="s6" d="m2370.2 1781.3l1.1-2.1c15.3-30.7 375.8-753.1 413.6-790.9 0.5-0.5 1.3-0.5 1.8 0 0.5 0.5 0.5 1.3 0 1.8-36.5 36.5-389.9 743.8-412.1 788.1 63.5-8.5 198.5-118.1 301.3-209.1 112.8-100.1 212.1-199.9 213.1-200.9 0.5-0.5 1.3-0.5 1.8 0 0.5 0.5 0.5 1.3 0 1.8-1 1-100.3 100.9-213.2 201-66.4 58.8-124.3 106.1-172.3 140.7-60.2 43.3-104.8 66.6-132.8 69.4z"/>
			<path id="&lt;Path&gt;" class="s6" d="m2270.6 1815.4c-0.7 0-1.2-0.6-1.2-1.3-1-47.8 34.3-210.8 104.7-484.5 52.5-203.7 105.9-395.8 106.4-397.7 0.2-0.7 0.9-1.1 1.6-0.9 0.7 0.2 1.1 0.9 0.9 1.5-0.6 2-54 194.1-106.4 397.8-48.4 187.9-105.8 424.4-104.7 483.8 0 0.7-0.5 1.3-1.2 1.3q-0.1 0-0.1 0z"/>
		</g>
		<g id="&lt;Group&gt;">
			<path id="&lt;Path&gt;" class="s7" d="m759.7 1248.5l-79.2-78 41.1-41.8 79.2 78.1z"/>
			<path id="&lt;Path&gt;" class="s5" d="m1428.1 1117.8c-170 172.6-447.7 174.8-620.3 4.8-172.6-170-174.7-447.7-4.7-620.3 170-172.6 447.7-174.7 620.3-4.7 172.6 169.9 174.7 447.6 4.7 620.2z"/>
			<g id="&lt;Clip Group&gt;">
				<path id="&lt;Path&gt;" class="s4" d="m778 1002c-84.8-11.5-161.6 0.4-161.7 0-0.3-0.8-2.3-307.4-2.3-307.4l646.8 28.1-585.4-90.7 121.2-255.3 819.8 157.9-55.9 441.6h-334.8l332.9 39.7-109.1 210-623.6 5.5-159.7-186.6 369.1-25.9c0 0-141.4-1.1-257.3-16.9z"/>
			</g>
			<g id="&lt;Group&gt;">
				<path id="&lt;Compound Path&gt;" class="s8" d="m754.5 1176.7c-49.5-48.7-87.9-105.7-114.3-169.4-25.5-61.4-38.7-126.5-39.2-193.3-0.5-66.8 11.7-132 36.2-193.9 25.4-64 63-121.6 111.7-171.1 48.8-49.5 105.8-87.9 169.4-114.3 61.5-25.5 126.5-38.7 193.4-39.2 66.8-0.5 132 11.7 193.9 36.2 64 25.4 121.6 63 171.1 111.7 49.4 48.8 87.9 105.7 114.3 169.4 25.5 61.5 38.7 126.5 39.2 193.3 0.5 66.8-11.7 132.1-36.2 193.9-25.4 64.1-63 121.7-111.8 171.1-48.7 49.5-105.7 88-169.3 114.4-61.5 25.5-126.5 38.6-193.4 39.1-66.8 0.6-132-11.6-193.9-36.2-64-25.4-121.6-62.9-171.1-111.7zm665.2-675.4c-82.5-81.3-191.7-125.5-307.4-124.6-115.8 0.9-224.3 46.8-305.5 129.3-81.2 82.5-125.5 191.6-124.6 307.4 0.9 115.8 46.8 224.2 129.3 305.5 82.5 81.2 191.7 125.5 307.4 124.6 115.8-0.9 224.3-46.8 305.5-129.3 81.2-82.5 125.5-191.7 124.6-307.5-0.9-115.7-46.8-224.2-129.3-305.4z"/>
			</g>
			<path id="&lt;Path&gt;" class="s8" d="m423.5 1589.4l-76.5-75.3c-14-13.8-14.2-36.4-0.4-50.4l293.7-298.2c13.8-14 36.3-14.2 50.3-0.4l76.5 75.3c14 13.8 14.2 36.4 0.4 50.4l-293.7 298.2c-13.8 14-36.3 14.2-50.3 0.4z"/>
			<path id="&lt;Compound Path&gt;" class="s7" d="m1116 1287.8c-60.7 0-120-11.3-176.3-33.6-59.4-23.6-112.9-58.5-158.8-103.7-46-45.3-81.7-98.2-106.2-157.3-23.6-57-35.8-117.4-36.3-179.5-0.5-62 10.8-122.6 33.6-180 23.6-59.4 58.5-112.9 103.7-158.8 45.3-46 98.2-81.7 157.2-106.2 57.1-23.6 117.5-35.9 179.5-36.3 62.1-0.5 122.6 10.8 180.1 33.6 59.4 23.5 112.8 58.4 158.8 103.7 45.9 45.2 81.7 98.1 106.1 157.2 23.7 57.1 35.9 117.5 36.4 179.5 0.5 62.1-10.8 122.6-33.6 180-23.6 59.5-58.5 112.9-103.7 158.9l-2.1-2.1 2.1 2.1c-45.3 45.9-98.2 81.6-157.2 106.1-57.1 23.7-117.5 35.9-179.5 36.4q-1.9 0-3.8 0zm0.2-949.5q-1.9 0-3.7 0c-61.3 0.5-120.9 12.5-177.3 35.9-58.3 24.2-110.6 59.4-155.3 104.8-44.7 45.4-79.1 98.2-102.4 156.9-22.5 56.7-33.7 116.5-33.2 177.8 0.5 61.3 12.6 120.9 35.9 177.3 24.2 58.3 59.5 110.5 104.8 155.2 45.4 44.7 98.2 79.2 156.9 102.5 56.7 22.5 116.5 33.6 177.8 33.2 61.3-0.5 120.9-12.6 177.3-35.9 58.3-24.2 110.6-59.5 155.3-104.9 44.6-45.4 79.1-98.1 102.4-156.8 22.5-56.7 33.7-116.6 33.2-177.8-0.5-61.3-12.6-121-35.9-177.3-24.2-58.4-59.5-110.6-104.9-155.3-45.3-44.7-98.1-79.1-156.8-102.4-55.6-22.1-114.1-33.2-174.1-33.2z"/>
			<path id="&lt;Path&gt;" class="s7" d="m474.5 1576.9l-115.8-114.1c-5.6-5.5-5.7-14.5-0.2-20.2l9.2-9.3c5.5-5.6 14.6-5.7 20.2-0.1l115.8 114c5.7 5.6 5.7 14.6 0.2 20.3l-9.2 9.3c-5.5 5.6-14.6 5.7-20.2 0.1z"/>
		</g>
		<path id="&lt;Path&gt;" class="s1" d="m2742.5 1789.2c0 49.1-488.4 89-1090.8 89-602.4 0-1090.8-39.9-1090.8-89 0-49.2 488.4-89.1 1090.8-89.1 602.4 0 1090.8 39.9 1090.8 89.1z"/>
		<g id="&lt;Group&gt;">
			<path id="&lt;Path&gt;" class="s9" d="m1817.7 882.3c0 0-48.4 57.6-74.9 153.7-24.5 88.8-96 416.6-96 416.6h183.4z"/>
			<g id="&lt;Group&gt;">
				<path id="&lt;Path&gt;" class="s8" d="m1108.7 1620.7c0 0-32.9-1.2-49.8 17.5-16.3 18-20.6 67.5 4.5 103.5 0 0 17.6 18.7 43.8 26.4 0 0-22.4-51.9-21.5-87.1 0.9-35.2 23-60.3 23-60.3z"/>
				<path id="&lt;Path&gt;" class="s7" d="m1086.8 1746.2c-27.8-45-20-129.8 21.9-125.5 60.5 6.1 218.7 55.8 218.7 55.8l9.3 101.7c0 0-141 7.2-225.5-8.9-11.4-2.2-18.4-13.4-24.4-23.1z"/>
				<path id="&lt;Path&gt;" class="s10" d="m1324.6 1686c0 0-68.5-21.5-75.7 0-7.2 21.5-1.7 60 16.7 71.3 18.5 11.2 64.1 4.2 64.1 4.2z"/>
			</g>
			<path id="&lt;Path&gt;" class="s7" d="m1491.9 1484.5c0 0-83.1-10.6-123.3 66.6-37.1 71.2-2.2 190.3 146.2 203.2 148.4 12.9 557.1-20.4 557.1-20.4v-220.7z"/>
			<path id="&lt;Path&gt;" class="s8" d="m2269 1500.4c0 0 134.8 57.5 70.2 230.5-60.8 163.1-1006.1 86.3-1011.1 72.3-6.2-16.8-25-150.2-5.4-158 19.7-7.8 724.7-150.6 724.7-150.6z"/>
			<g id="&lt;Clip Group&gt;">
				<path id="&lt;Path&gt;" class="s11" d="m1786.2 1526.9c0 0 174.9 43.8 326.5 34.7 151.6-9.2 222.3-40.4 222.3-40.4l-37.4-36.7-486.9 10.1z"/>
				<path id="&lt;Path&gt;" class="s7" d="m1314 1726.9c-1.5 0-2.8-1.3-2.8-2.8-0.1-1.6 1.2-2.9 2.8-2.9 2.1-0.1 214.1-4.9 449.2-20 311-20 520.8-48.7 606.7-83.2 1.5-0.6 3.2 0.1 3.8 1.6 0.6 1.5-0.2 3.1-1.6 3.7-48.4 19.4-134.1 36.9-254.9 52-96.5 12.1-215.4 22.7-353.6 31.6-235.2 15.1-447.4 19.9-449.5 20q0 0-0.1 0z"/>
			</g>
			<g id="&lt;Group&gt;">
				<path id="&lt;Path&gt;" class="s12" d="m2107.7 746.9c0 0 152 63.6 196.7 155.2 44.8 91.6-115 566.5-144.8 575-29.8 8.5-338.6 14.9-362 0-23.5-14.9-11.9-550 20.1-594.8 31.9-44.7 152.5-135.4 152.5-135.4z"/>
				<g id="&lt;Clip Group&gt;">
					<path id="&lt;Path&gt;" class="s10" d="m2021.3 1032.8c0-1.7 1.4-3 3-3.1 17.9-0.3 109.8-1.7 115.8 3.1 6.6 5.4-1.9 155.9-12.6 156.6-10.7 0.8-99.8 5.4-102.9-2.3-2.8-7-3.2-133.2-3.3-154.3z"/>
				</g>
				<g id="&lt;Group&gt;">
					<g id="&lt;Group&gt;">
						<g id="&lt;Group&gt;">
							<path id="&lt;Path&gt;" class="s10" d="m2046.1 429.7c-19.9-21.2-89.9-42-144.9-28.9-31 7.4-54.2 33.3-59.4 64.7-6.4 39.1-12.3 78.5-14.8 118.1-2.2 33.1-5.9 75.9 11.1 106.1 11.3 19.8 39.4 21.3 59.6 21.7 3.3 0 35.2-3.2 34.4-7.7 7.3 42.6 32.5 139.2 36.8 152 6.1 18.1 125.2-50 144.2-73.8 19.1-23.8-87.2-162.3-87.2-162.3 10.5-29.6 47.9-160.3 20.2-189.9z"/>
							<g id="&lt;Clip Group&gt;" clip-path="url(#cp1)">
							</g>
							<path id="&lt;Path&gt;" class="s13" d="m1899.7 507.6c0 0-46.1 65.1-35.6 71.7 10.6 6.6 43.5-9.6 43.5-9.6-0.3 4.6-3.2 8.6-7.5 10.2-12.4 4.7-36.5 12.8-42 3-9.5-17.4 41.6-75.3 41.6-75.3z"/>
							<path id="&lt;Path&gt;" class="s13" d="m1932.1 703.7c0 0 28.5-17.6 44.3-38.8 0 0 8.9 65.5-32.9 92.4z"/>
						</g>
						<path id="&lt;Path&gt;" class="s8" d="m2076.5 410.4c24.2 12.6 57.9 65.7 35.6 109.3-25 48.6-78.9 98.7-86.2 99.9-7.2 1.1-16.9-56.7-16.9-56.7 52.2-10.3 28.4-61.6 20.3-61.3-8.2 0.3-24.4 33.9-29.3 27.6-3.7-4.8 1.9-57.2 4.7-81.5 0 0-109.8 67.9-181.2 41.2 0 0-34.7-117.5 69.3-141.3 104-23.8 183.7 62.8 183.7 62.8z"/>
						<g id="&lt;Clip Group&gt;">
							<path id="&lt;Path&gt;" class="s11" d="m1809.1 464.5c9.9-0.3 135-26.3 145-28.5 10.1-2.2-12.8 24 1.7 18.4 14.5-5.6 64.1-22.3 65.8-19.5 1.7 2.8-21.6 94.3-21.6 94.3 0 0-10.2-66.4-11.9-65.9-1.6 0.6-93.7 50.8-127.2 51.4-33.4 0.5-46.8-4.5-49.6-22.9-2.8-18.4-2.2-27.3-2.2-27.3z"/>
						</g>
					</g>
					<path id="&lt;Path&gt;" class="s7" d="m1934.7 605.2l-15.6-5c-1-0.3-2.1 0.2-2.4 1.2-0.3 0.9 0.3 2 1.2 2.3l5.5 1.7c-5.9 34.1-65.8 32.5-66.4 32.5-1-0.1-1.9 0.8-1.9 1.8-0.1 1 0.7 1.8 1.8 1.9 0.1 0 0.8 0 2 0 4.8 0 17.3-0.4 30.4-3.6 21.8-5.3 34.8-16.2 37.6-31.4l6.7 2.1q0.3 0.1 0.6 0.1c0.8 0 1.5-0.5 1.7-1.3 0.3-1-0.2-2-1.2-2.3z"/>
					<path id="&lt;Path&gt;" class="s2" d="m2014.2 509.4l-35.5 2.4c-1.6-17-15.8-30.3-33.2-30.3-13.8 0-25.6 8.4-30.7 20.3-12.1-7-21.6-4.5-26.8-1.9-2.3-16.1-16.2-28.5-32.9-28.5-18.4 0-33.4 15-33.4 33.4 0 18.4 15 33.3 33.4 33.3 18 0 32.6-14.2 33.3-32 2.6-2 11.6-7 24.6 1.1-0.5 2.5-0.9 5-0.9 7.7 0 18.4 15 33.3 33.4 33.3 17.6 0 31.9-13.6 33.2-30.8l35.9-2.5c1.5-0.1 2.7-1.4 2.6-2.9-0.1-1.6-1.5-2.7-3-2.6z"/>
				</g>
				<path id="&lt;Path&gt;" class="s2" d="m1977.2 858.6l22.4 33.9c11.6 17.6 36.4 20.6 51.8 6.1 35.6-33.5 88.4-93 76.8-142.3l-20.5-9.4c0 0-65 96.2-130.5 111.7z"/>
				<path id="&lt;Path&gt;" class="s2" d="m1968.9 855.7l-27.5 21.8c-13.5 10.7-33.5 2.8-35.9-14.2-3.7-26.4-4.8-61.7 9.6-87.1l29.1-15.8z"/>
				<g id="&lt;Group&gt;">
					<path id="&lt;Path&gt;" class="s9" d="m1962.8 968.6c-7.9 0-14.3-6.5-14.3-14.4 0-7.9 6.4-14.3 14.3-14.3 8 0 14.4 6.4 14.4 14.3 0 7.9-6.4 14.4-14.4 14.4z"/>
					<path id="&lt;Path&gt;" class="s9" d="m1959.1 1074.2c-8 0-14.4-6.4-14.4-14.3 0-7.9 6.4-14.3 14.4-14.3 7.9 0 14.3 6.4 14.3 14.3 0 7.9-6.4 14.3-14.3 14.3z"/>
					<path id="&lt;Path&gt;" class="s9" d="m1953.6 1179.9c-8 0-14.4-6.4-14.4-14.3 0-7.9 6.4-14.3 14.4-14.3 7.9 0 14.3 6.4 14.3 14.3 0 7.9-6.4 14.3-14.3 14.3z"/>
					<path id="&lt;Path&gt;" class="s9" d="m1948.5 1285.6c-7.9 0-14.3-6.4-14.3-14.3 0-8 6.4-14.4 14.3-14.4 7.9 0 14.3 6.4 14.3 14.4 0 7.9-6.4 14.3-14.3 14.3z"/>
					<path id="&lt;Path&gt;" class="s9" d="m1948.5 1391.3c-7.9 0-14.3-6.4-14.3-14.4 0-7.9 6.4-14.3 14.3-14.3 7.9 0 14.3 6.4 14.3 14.3 0 8-6.4 14.4-14.3 14.4z"/>
				</g>
			</g>
			<path id="&lt;Path&gt;" class="s12" d="m2304.4 902.1c0 0 119.5 277.8 106.8 424.2-9.2 105.9-475.2 174.1-475.2 174.1l-51.6-83.3 345.5-169.1c0 0-133.6-300 74.5-345.9z"/>
			<path id="&lt;Path&gt;" class="s9" d="m1995.7 1362.6l234.2-114.6c0 0-59.1-121.8-46.6-202.4 0 0-31.9 118.8 19.5 190.1 0 0-202.8 116.5-207.1 126.9z"/>
			<path id="&lt;Path&gt;" class="s9" d="m2304.4 902.1c0 0-97.1-20.6-121.1 143.5 0 0-9.3-155.9 109.6-163.3z"/>
			<path id="&lt;Path&gt;" class="s14" d="m2177.6 1451.1l-142.4 29.8c0 0 107.3 2.5 124.4-3.8 0 0 14.7-12.6 18-26z"/>
			<g id="&lt;Group&gt;">
				<path id="&lt;Path&gt;" class="s8" d="m1469.5 1479.7c0 0 810.2-17.6 814.6-9.5 4.3 8 2.8 36.7-4.9 38-7.8 1.4-790.6 18.1-801.4 11.4-10.8-6.7-8.3-39.9-8.3-39.9z"/>
				<g id="&lt;Clip Group&gt;">
					<path id="&lt;Path&gt;" class="s7" d="m1985.9 1459.4c0 0 4.1 60.2 0 61.8-4.2 1.6-503.1 11.6-516.6 5.1-13.6-6.4-18.3-50.1-8.8-53.1 9.6-3 525.4-13.8 525.4-13.8z"/>
				</g>
				<path id="&lt;Path&gt;" class="s6" d="m1262.4 1160.3c-1.5-3.2 0.8-6.9 4.4-7 64.4-0.7 523.2-5.3 537.8 2.1 15.8 8 189 312.5 181 317.8-8 5.3-499.1 13.1-516.1 6.5-30.5-11.7-174.8-250.1-207.1-319.4z"/>
				<path id="&lt;Path&gt;" class="s2" d="m1661.9 1315.4c13.8 18.2 12.1 42.8-3.9 54.9-16 12.1-40.1 7.2-53.9-11-13.8-18.3-12.1-42.8 3.9-55 16-12.1 40.1-7.1 53.9 11.1z"/>
			</g>
		</g>
		<g id="&lt;Group&gt;">
			<g id="&lt;Group&gt;">
				<path id="&lt;Path&gt;" class="s2" d="m603.8 782.7c-38.4 0-69.6-31.2-69.6-69.6v-168.8c0-38.4 31.2-69.7 69.6-69.7h419.7c38.4 0 69.6 31.3 69.6 69.7v168.8c0 38.4-31.2 69.6-69.6 69.6z"/>
				<path id="&lt;Path&gt;" class="s15" d="m1023.5 759.1h-419.7c-25.4 0-46-20.6-46-46v-168.8c0-25.5 20.6-46.1 46-46.1h419.7c25.4 0 46 20.6 46 46.1v168.8c0 25.4-20.6 46-46 46z"/>
				<g id="&lt;Group&gt;">
					<path id="&lt;Compound Path&gt;" class="s2" d="m688.6 579.4q0.7-3 2.7-4.6 2.1-1.5 4.5-1.6 2.4 0 4.5 1.4 2.2 1.4 3.1 4.3 2.9 25.6 4 50.6 1.1 25.1 1.2 50.9-0.1 2.4-1.3 4-1.1 1.5-2.9 2.3-1.8 0.7-3.9 0.7-2.1 0-3.9-0.8-1.9-0.8-3.1-2.3-1.3-1.5-1.7-3.9-0.1-12.1 0.5-23.8 0.5-11.7 0-23.8-0.6 0.2-1.2 0.4-0.7 0.2-1.4 0.4-6-0.1-11.6-0.5-5.6-0.4-11.1-0.6-5.5-0.3-11 0.1-5.6 0.3-11.4 1.6l-1.1 43q-0.2 3.6-2.3 5.3-2.1 1.7-4.6 1.7-2.5 0-4.8-1.7-2.3-1.7-2.7-5.2v-97.9q0.6-3 2.7-4.4 2-1.4 4.5-1.4 2.4 0.1 4.6 1.7 2.2 1.5 3.1 4.4l0.6 39.7q5.9-1 11.5-1.3 5.5-0.2 11 0.1 5.5 0.3 11.1 0.7 5.6 0.4 11.6 0.5 0.4 0.2 0.8 0.3 0.3 0.1 0.7 0.3-0.6-10.7-1.1-20.3-0.5-9.6-1.6-20.3z"/>
					<path id="&lt;Compound Path&gt;" class="s2" d="m726.4 588.9q-3-0.5-4.7-2.1-1.8-1.6-2-3.6-0.3-2 0.9-4 1.3-2 4.2-3 11.2-1.4 20.2-1.9 9-0.4 17.7-0.3 8.6 0 17.7 0.4 9.1 0.4 20.2 0.5 3 0.8 4.4 2.7 1.3 1.9 1.3 3.9-0.1 2.1-1.6 3.8-1.6 1.7-4.6 2.4-4.5 0-8.1 0-3.5 0.1-6.9 0.1-3.4 0.1-6.9 0.2-3.6 0.1-8.1 0.1 0.1 11.3 0.1 22.5 0.1 11.1 0.3 22.1 0.2 11.1 0.7 22.2 0.4 11.1 1.4 22.4-0.2 3-2 5.1-1.9 2-4.3 2.8-2.5 0.7-4.9-0.1-2.5-0.9-3.8-3.7-1.1-11.6-1.2-23.3-0.2-11.7 0-23.3 0.2-11.7 0.6-23.4 0.4-11.7 0.4-23.3-4.9 0.1-8.5 0-3.7-0.1-7.1-0.1-3.4-0.1-7 0.1-3.6 0.1-8.4 0.8z"/>
					<path id="&lt;Compound Path&gt;" class="s2" d="m880.1 676.1q-2.3 3.9-4.6 4.7-2.2 0.8-4.1 0-1.9-0.8-3.2-2.4-1.3-1.7-1.7-2.8-1.9-4.5-3.7-10.6-1.8-6.1-3.4-12.9-1.7-6.7-3.5-13.9-1.8-7.1-3.7-13.8-1.8-6.7-3.9-12.6-2.1-5.8-4.6-10.1-2.6 9.3-4 18.8-1.5 9.5-2.4 19-0.9 9.5-1.6 19-0.7 9.5-1.9 18.8-0.5 3.9-2.4 5.7-1.9 1.9-4.3 1.9-2.5 0.1-4.9-1.6-2.4-1.7-3.9-4.9 0.4-13.2 1.9-26.9 1.5-13.7 3.5-26.5 2-12.8 4.2-24.1 2.1-11.4 3.7-19.8 1-2.3 3.3-3.7 2.3-1.3 5-1.6 2.7-0.2 5.2 0.6 2.6 0.8 3.8 2.8 6.1 8.3 10.2 17.7 4.2 9.5 7 18.9 2.8 9.3 4.7 17.9 1.8 8.5 3.7 15 2.3-10.2 5.6-20.2 3.3-10 6.5-18.9 3.3-8.9 6-16.2 2.7-7.2 3.9-12 0.7-2.4 2.7-4.3 2.1-1.8 4.5-2.3 2.4-0.5 4.6 0.6 2.2 1.1 3.2 4.3 1.9 13.2 4.5 25.7 2.5 12.5 5 24.7 2.4 12.1 4.6 24.2 2.1 12.1 3.1 24.1 0.3 3.6-1.5 5.4-1.9 1.9-4.4 2-2.5 0.1-4.9-1.5-2.4-1.7-3.2-5.4-2.1-9.4-4-18.4-1.9-9-3.5-17.9-1.6-8.9-3-17.9-1.3-9-2.4-18.6-2.4 8.5-4.5 17-2.2 8.6-4.6 17.3-2.4 8.6-5.5 17.6-3 8.9-7.1 18.1z"/>
					<path id="&lt;Compound Path&gt;" class="s2" d="m949.3 581.2q0.6-3 2.9-4.4 2.2-1.4 4.9-1.3 2.7 0.1 5.1 1.7 2.5 1.7 3.3 4.6 0 12-0.2 23.2-0.2 11.2-0.5 22.2-0.3 11.1-0.5 22.3-0.2 11.3-0.3 23.3 6 0.9 12.9 1.1 6.8 0.2 13.9 0.1 7 0 13.8-0.2 6.9-0.2 13-0.2 2.9 0.8 4.3 2.7 1.4 1.9 1.4 3.9-0.1 2.1-1.7 3.8-1.5 1.7-4.5 2.4-6.8 0-14.7 0.4-7.8 0.4-15.9 0.6-8.1 0.3-15.9 0.1-7.8-0.2-14.4-1.1-2.5 0.5-4.8-1.2-2.4-1.6-2.9-5.5 0-12.7 0.1-24.9 0.1-12.2 0.3-24.3 0.2-12.1 0.3-24.4 0.1-12.2 0.1-24.9z"/>
				</g>
			</g>
			<g id="&lt;Group&gt;">
				<path id="&lt;Path&gt;" class="s2" d="m1171.4 970.9c-24.7 0-44.7-20-44.7-44.7v-131.2c0-24.7 20-44.8 44.7-44.8h296.1c24.7 0 44.8 20.1 44.8 44.8v131.2c0 24.7-20.1 44.7-44.8 44.7z"/>
				<path id="&lt;Path&gt;" class="s15" d="m1467.5 952.2h-296.1c-14.4 0-26-11.6-26-26v-131.2c0-14.4 11.6-26.1 26-26.1h296.1c14.4 0 26.1 11.7 26.1 26.1v131.2c0 14.4-11.7 26-26.1 26z"/>
				<g id="&lt;Group&gt;">
					<path id="&lt;Compound Path&gt;" class="s2" d="m1209.3 830.9q-2.4-0.3-3.8-1.6-1.3-1.3-1.6-2.8-0.2-1.6 0.8-3.2 1-1.6 3.3-2.4 3.5-0.3 7.7-0.7 4.2-0.4 8.4-0.6 4.3-0.1 8.2 0.3 3.9 0.5 6.8 1.8 2.3 1.7 2.9 3.8 0.5 2.2-0.2 3.9-0.6 1.8-2.4 2.6-1.8 0.7-4.4-0.5-2-0.9-5.6-0.9 0.4 4.8 1.1 10.5 0.8 5.7 1.5 11.9 0.6 6.2 1 12.5 0.4 6.3 0.1 12.2-0.2 6-1.4 11.3-1.1 5.4-3.5 9.5-1.8 3.1-4.9 4.9-3.2 1.9-7 2.6-3.8 0.7-7.9 0.4-4.2-0.3-8-1.4-3.8-1.2-7-3.1-3.2-1.9-5.1-4.5-1.4-1.9-2.2-4.3-0.8-2.4-1.2-5-0.4-2.5-0.4-5-0.1-2.5-0.2-4.8 0.5-2.4 2.2-3.6 1.6-1.1 3.6-1.1 2 0 3.7 1.2 1.8 1.2 2.5 3.5 0.1 3.4 0 5.8-0.2 2.4 0.4 4.2 0.5 1.8 2 3.2 1.5 1.3 5 2.6 7.3 2.5 11.2 0 3.9-2.5 5.5-10 1.1-5.9 1.1-12.6 0-6.6-0.5-13.5-0.6-6.8-1.5-13.6-0.9-6.8-1.4-13.1-2.5 0.3-4.9-0.1-2.4-0.4-3.9-0.3z"/>
					<path id="&lt;Compound Path&gt;" class="s2" d="m1247.5 902.4q1.5-3.6 2.9-9 1.3-5.4 2.7-11.9 1.4-6.5 2.9-13.6 1.5-7 3.3-13.9 1.7-6.9 3.9-13 2.1-6.2 4.7-10.9 2.7-4.7 5.9-7.5 3.2-2.7 7.3-2.7 2.3 0 4.5 2.7 2.3 2.8 4.4 7.4 2.2 4.7 4.4 10.8 2.2 6.2 4.3 12.9 2.1 6.7 4.3 13.7 2.1 7 4.2 13.3 2.1 6.3 4.2 11.6 2 5.3 4.2 8.6 0.7 2.3-0.2 4.1-0.8 1.7-2.4 2.6-1.6 0.8-3.6 0.5-2.1-0.3-3.8-2-2-3.1-3.7-6.7-1.8-3.6-3-6.9-1.2-3.3-2-6-0.8-2.7-1-4.2-4.3 0-8.2 0-3.9 0-7.8 0-3.8 0-7.7-0.1-3.8 0-8.2-0.1-1 3.9-1.6 6.9-0.5 2.9-1 5.6-0.5 2.8-1.3 5.7-0.8 2.8-2.2 6.6-1.6 1.9-3.6 2.3-2 0.4-3.6-0.3-1.7-0.7-2.7-2.4-1-1.7-0.5-4.1zm32.5-69.3q-1.2-0.4-2.4 1.5-1.1 1.9-2.3 5.1-1.2 3.3-2.3 7.4-1.1 4.2-2.1 8.5-1.1 4.2-2 8.1-1 3.9-1.8 6.6 3.6 0.1 6.8 0.2 3.1 0.1 6.1 0.2 3 0.1 6.1 0.3 3.1 0.1 6.7 0.2-2-5.1-3.4-9.8-1.4-4.7-2.8-9.4-1.3-4.7-2.8-9.4-1.6-4.7-3.8-9.5z"/>
					<path id="&lt;Compound Path&gt;" class="s2" d="m1354.4 906.6q-1.3 1.5-2.7 2-1.3 0.4-2.6 0.2-1.2-0.3-2.2-1.2-1.1-0.9-1.8-2.1-7.1-20.2-14.3-39.3-7.3-19.1-15-38.8-0.2-2.3 1.1-3.9 1.4-1.5 3.5-2 2-0.5 4.2 0.1 2.1 0.7 3.6 2.7 3.2 8.7 6.1 16.2 3 7.6 5.8 15 2.8 7.5 5.4 15.3 2.6 7.8 5 17 3.4-8.2 6.4-16.2 3.1-8 6-16 2.8-8 5.5-16.1 2.8-8 5.5-16.3 1.2-2.1 3.1-2.6 2-0.5 3.8 0.3 1.8 0.7 3 2.5 1.3 1.8 1.2 4.2-2.8 10-6.4 19.8-3.6 9.9-7.6 19.7-4.1 9.9-8.3 19.7-4.2 9.9-8.3 19.8z"/>
					<path id="&lt;Compound Path&gt;" class="s2" d="m1393.1 902.4q1.5-3.6 2.9-9 1.3-5.4 2.7-11.9 1.4-6.5 2.9-13.6 1.5-7 3.3-13.9 1.7-6.9 3.9-13 2.1-6.2 4.7-10.9 2.7-4.7 5.9-7.5 3.3-2.7 7.3-2.7 2.3 0 4.5 2.7 2.3 2.8 4.5 7.4 2.1 4.7 4.3 10.8 2.2 6.2 4.3 12.9 2.1 6.7 4.3 13.7 2.1 7 4.2 13.3 2.1 6.3 4.2 11.6 2.1 5.3 4.2 8.6 0.7 2.3-0.2 4.1-0.8 1.7-2.4 2.6-1.6 0.8-3.6 0.5-2.1-0.3-3.8-2-2-3.1-3.7-6.7-1.7-3.6-3-6.9-1.2-3.3-2-6-0.7-2.7-1-4.2-4.3 0-8.2 0-3.9 0-7.7 0-3.9 0-7.8-0.1-3.8 0-8.2-0.1-1 3.9-1.6 6.9-0.5 2.9-1 5.6-0.5 2.8-1.3 5.7-0.8 2.8-2.2 6.6-1.6 1.9-3.6 2.3-2 0.4-3.6-0.3-1.7-0.7-2.7-2.4-1-1.7-0.5-4.1zm32.5-69.3q-1.2-0.4-2.3 1.5-1.2 1.9-2.4 5.1-1.1 3.3-2.3 7.4-1.1 4.2-2.1 8.5-1.1 4.2-2 8.1-1 3.9-1.8 6.6 3.6 0.1 6.8 0.2 3.1 0.1 6.1 0.2 3 0.1 6.1 0.3 3.1 0.1 6.7 0.2-2-5.1-3.4-9.8-1.4-4.7-2.8-9.4-1.3-4.7-2.8-9.4-1.5-4.7-3.8-9.5z"/>
				</g>
			</g>
			<g id="&lt;Group&gt;">
				<path id="&lt;Path&gt;" class="s2" d="m1227.2 665c-28.6 0-51.8-23.2-51.8-51.7v-139.7c0-28.6 23.2-51.8 51.8-51.8h329.2c28.6 0 51.8 23.2 51.8 51.8v139.7c0 28.5-23.2 51.7-51.8 51.7z"/>
				<path id="&lt;Path&gt;" class="s15" d="m1556.4 641.9h-329.2c-15.8 0-28.6-12.8-28.6-28.6v-139.7c0-15.8 12.8-28.6 28.6-28.6h329.2c15.8 0 28.6 12.8 28.6 28.6v139.7c0 15.8-12.8 28.6-28.6 28.6z"/>
				<g id="&lt;Group&gt;">
					<path id="&lt;Compound Path&gt;" class="s2" d="m1274.2 502.6q-0.2-3.2 1.1-5.2 1.3-2 3.2-2.7 1.9-0.6 4 0.2 2 0.8 3.3 3.3 3.2-2.4 8.9-3.5 5.7-1 12.4-0.6 6.8 0.4 13.8 2.5 7 2 12.8 6 5.7 4 9.5 9.9 3.7 5.9 3.9 14 0.3 9.9-2.6 17.6-2.8 7.8-7.7 13.1-4.9 5.4-11.2 8.6-6.3 3.2-12.9 3.9-6.5 0.7-12.9-1-6.3-1.6-11.2-5.8-0.3 4.6-0.2 8.7 0.1 4.2 0.3 8.3 0.1 4 0.2 8.2 0.1 4.2 0 8.7-0.2 3.5-2 5.3-1.8 1.8-4 1.9-2.3 0-4.2-1.6-2-1.7-2.4-5 0-12.7 0-24.7-0.1-12.1-0.3-23.8-0.2-11.7-0.6-23.2-0.5-11.5-1.2-23.1zm13.9 9.5q0.4 5.1 0.7 9.8 0.2 4.6 0.2 9.2 0.1 4.6 0 9.2 0 4.7-0.1 9.9 1.4-0.2 3.3 0.3 3.2 3 7.4 4.2 4.3 1.1 8.6 0.6 4.4-0.5 8.7-2.4 4.3-2 7.6-5.2 3.3-3.1 5.4-7.4 2-4.2 2-9.2 0-5.4-2.3-9.6-2.3-4.2-6.1-7.1-3.7-3-8.5-4.6-4.7-1.7-9.6-2-4.8-0.3-9.4 0.8-4.5 1-7.9 3.5z"/>
					<path id="&lt;Compound Path&gt;" class="s2" d="m1421 498.6q0.7-2.9 2.7-4.4 2-1.6 4.4-1.6 2.3-0.1 4.5 1.3 2.1 1.4 2.9 4.2 2.9 25.1 4 49.7 1.1 24.6 1.2 50-0.1 2.3-1.3 3.8-1.1 1.6-2.9 2.3-1.7 0.7-3.8 0.7-2.1 0-3.8-0.8-1.8-0.7-3.1-2.2-1.3-1.5-1.6-3.8-0.1-12 0.4-23.4 0.6-11.5 0-23.4-0.5 0.2-1.1 0.4-0.7 0.2-1.4 0.5-5.9-0.1-11.4-0.6-5.5-0.4-10.9-0.6-5.4-0.2-10.8 0.1-5.4 0.3-11.1 1.6l-1.1 42.2q-0.2 3.5-2.3 5.2-2 1.7-4.5 1.7-2.5 0-4.7-1.7-2.2-1.7-2.6-5.1v-96.1q0.6-2.9 2.6-4.3 2-1.4 4.4-1.3 2.4 0.1 4.5 1.6 2.2 1.5 3 4.4l0.7 38.9q5.8-1 11.2-1.2 5.4-0.3 10.8 0 5.4 0.3 10.9 0.7 5.5 0.4 11.4 0.5 0.4 0.2 0.7 0.3 0.4 0 0.8 0.2-0.7-10.4-1.1-19.9-0.5-9.4-1.6-19.9z"/>
					<path id="&lt;Compound Path&gt;" class="s2" d="m1456.1 502.6q-0.2-3.2 1.1-5.2 1.3-2 3.2-2.7 1.9-0.6 4 0.2 2 0.8 3.3 3.3 3.2-2.4 8.9-3.5 5.7-1 12.4-0.6 6.8 0.4 13.8 2.5 7 2 12.8 6 5.7 4 9.5 9.9 3.7 5.9 3.9 14 0.3 9.9-2.6 17.6-2.8 7.8-7.7 13.1-4.9 5.4-11.2 8.6-6.3 3.2-12.9 3.9-6.5 0.7-12.9-1-6.3-1.6-11.2-5.8-0.3 4.6-0.2 8.7 0.1 4.2 0.3 8.3 0.1 4 0.2 8.2 0.1 4.2 0 8.7-0.2 3.5-2 5.3-1.8 1.8-4 1.9-2.3 0-4.2-1.6-2-1.7-2.4-5 0-12.7 0-24.7-0.1-12.1-0.3-23.8-0.2-11.7-0.6-23.2-0.5-11.5-1.2-23.1zm13.9 9.5q0.4 5.1 0.7 9.8 0.2 4.6 0.2 9.2 0.1 4.6 0 9.2 0 4.7-0.1 9.9 1.4-0.2 3.3 0.3 3.2 3 7.4 4.2 4.3 1.1 8.6 0.6 4.4-0.5 8.7-2.4 4.3-2 7.6-5.2 3.3-3.1 5.4-7.4 2-4.2 2-9.2 0-5.4-2.3-9.6-2.3-4.2-6.1-7.1-3.7-3-8.5-4.6-4.7-1.7-9.6-2-4.8-0.3-9.4 0.8-4.5 1-7.9 3.5z"/>
				</g>
			</g>
			<g id="&lt;Group&gt;">
				<path id="&lt;Path&gt;" class="s2" d="m704.4 1005.6v-119.6c0-23 18.7-41.6 41.6-41.6h246.5c23 0 41.6 18.6 41.6 41.6v119.6c0 23-18.6 41.6-41.6 41.6h-246.5c-22.9 0-41.6-18.6-41.6-41.6z"/>
				<path id="&lt;Path&gt;" class="s15" d="m997.1 1026.9h-256.3c-10.8 0-19.5-8.7-19.5-19.5v-123.2c0-10.8 8.7-19.6 19.5-19.6h256.3c10.7 0 19.5 8.8 19.5 19.6v123.2c0 10.8-8.8 19.5-19.5 19.5z"/>
				<g id="&lt;Group&gt;">
					<path id="&lt;Compound Path&gt;" class="s2" d="m814.3 901.1q-0.3-2.9 1-4.7 1.3-1.8 3.2-2.2 1.9-0.4 3.8 0.7 1.9 1.1 2.8 4 0.8 4.8 1.2 9.5 0.3 4.8 0.3 9.7-0.2 3.1-2 4.7-1.7 1.7-3.9 1.9-2.2 0.2-4.2-1.1-1.9-1.3-2.3-4.2v-0.7q-4.3-5.8-10-8.2-5.6-2.4-11.5-1.9-5.9 0.4-11.7 3.3-5.8 2.8-10.5 7.5-2.9 2.9-4.8 7.1-1.8 4.1-2.8 8.7-1 4.6-1.1 9.5-0.1 4.8 0.5 9.2 0.6 4.5 1.9 8.2 1.2 3.8 2.9 6.2 2.7 3.7 6.7 6.2 4 2.5 8.6 3.7 4.5 1.2 9.4 1.3 4.9 0 9.6-1.1 4.6-1.1 8.5-3.3 4-2.3 6.7-5.7 1.3-1.6 1.9-3.7 0.5-2 1.3-4 1.5-2.5 3.3-3.2 1.8-0.7 3.2 0.1 1.5 0.8 2.5 2.9 0.9 2.1 0.8 5.1-0.1 6.5-4.4 11.6-4.2 5.2-10.8 8.5-6.7 3.4-14.8 4.8-8.2 1.4-16.3 0.4-8.1-0.9-15.2-4.4-7.2-3.5-11.8-10-2.5-3.7-4.4-8.8-1.8-5.2-2.7-11.2-0.8-6-0.7-12.5 0-6.4 1.3-12.6 1.2-6.2 3.7-11.7 2.5-5.5 6.3-9.6 3-3.2 7.3-6 4.2-2.7 9-4.7 4.9-1.9 10.2-2.9 5.2-1 10.3-0.8 5.1 0.2 9.8 1.7 4.6 1.6 8.3 4.8-0.1-0.6-0.2-1.1-0.1-0.5-0.2-1z"/>
					<path id="&lt;Compound Path&gt;" class="s2" d="m902.9 920.2q0.7 2.5-0.5 4.1-1.3 1.6-3.4 2.2-2.2 0.5-4.8-0.1-2.5-0.6-4.4-2.4-0.1-2.8-1.3-5.8-1.2-3-3.2-5.4-2.1-2.4-4.8-3.9-2.7-1.6-5.9-1.5-4.3 0.2-7.7 2.3-3.4 2-5.3 5.4-1.9 3.3-2.2 7.5-0.3 4.2 1.8 8.6 0.7 1.8 4 2.7 3.2 0.9 7.7 2 4.5 1 9.6 2.6 5.1 1.5 9.8 4.6 4.6 3 8 7.9 3.5 4.9 4.7 12.6 0.9 6.5-1.3 11.4-2.1 5-6.3 8.4-4.3 3.5-9.9 5.3-5.7 1.9-11.9 2.1-6.1 0.3-12.1-1.1-5.9-1.5-10.6-4.6-4.7-3.1-7.7-8-2.9-4.9-3-11.6 0-1.8 0.2-3.5 0.2-1.7 0.8-3.1 0.6-1.4 1.8-2.3 1.2-1 3.2-1.3 1.9-0.1 3.2 0.7 1.2 0.7 2 1.9 0.8 1.3 1 3 0.3 1.7 0.1 3.6-0.5 4 1.1 6.9 1.6 2.9 4.4 4.8 2.7 1.9 6.2 2.7 3.5 0.9 6.8 0.7 3.3-0.2 6.7-0.9 3.4-0.8 6.1-2.5 2.8-1.7 4.4-4.5 1.7-2.7 1.3-6.8-0.2-2.2-1.2-4.6-1.1-2.4-2.8-4.5-1.8-2-4-3.7-2.2-1.6-4.6-2.4-3.7-1.1-7.7-2.1-3.9-1-7.6-2.3-3.7-1.2-7-3-3.3-1.7-5.8-4.3-2.6-2.6-4-6.2-1.5-3.6-1.6-8.6-0.1-6.2 2.3-11.1 2.3-5 6.2-8.4 3.8-3.5 8.6-5.4 4.7-1.9 9.4-1.9 6.4 0 11.7 1.7 5.3 1.6 9.4 4.7 4 3.1 6.6 7.6 2.5 4.4 3.5 9.8z"/>
					<path id="&lt;Compound Path&gt;" class="s2" d="m971.9 920.2q0.7 2.5-0.5 4.1-1.3 1.6-3.4 2.2-2.2 0.5-4.8-0.1-2.5-0.6-4.4-2.4-0.1-2.8-1.3-5.8-1.2-3-3.2-5.4-2-2.4-4.8-3.9-2.7-1.6-5.9-1.5-4.3 0.2-7.7 2.3-3.4 2-5.3 5.4-1.9 3.3-2.2 7.5-0.2 4.2 1.8 8.6 0.7 1.8 4 2.7 3.2 0.9 7.7 2 4.5 1 9.6 2.6 5.1 1.5 9.8 4.6 4.6 3 8 7.9 3.5 4.9 4.7 12.6 0.9 6.5-1.3 11.4-2.1 5-6.3 8.4-4.3 3.5-9.9 5.3-5.7 1.9-11.9 2.1-6.1 0.3-12.1-1.1-5.9-1.5-10.6-4.6-4.7-3.1-7.7-8-2.9-4.9-3-11.6 0-1.8 0.2-3.5 0.2-1.7 0.8-3.1 0.6-1.4 1.8-2.3 1.2-1 3.2-1.3 1.9-0.1 3.2 0.7 1.2 0.7 2 1.9 0.8 1.3 1 3 0.3 1.7 0.1 3.6-0.5 4 1.1 6.9 1.6 2.9 4.4 4.8 2.7 1.9 6.2 2.7 3.5 0.9 6.8 0.7 3.3-0.2 6.7-0.9 3.4-0.8 6.1-2.5 2.8-1.7 4.4-4.5 1.7-2.7 1.3-6.8-0.2-2.2-1.2-4.6-1.1-2.4-2.8-4.5-1.8-2-4-3.7-2.2-1.6-4.6-2.4-3.7-1.1-7.7-2.1-3.9-1-7.6-2.3-3.7-1.2-7-3-3.3-1.7-5.8-4.3-2.6-2.6-4-6.2-1.5-3.6-1.6-8.6-0.1-6.2 2.3-11.1 2.3-5 6.2-8.4 3.8-3.5 8.6-5.4 4.7-1.9 9.4-1.9 6.4 0 11.7 1.7 5.3 1.6 9.4 4.7 4 3.1 6.6 7.6 2.5 4.4 3.5 9.8z"/>
				</g>
			</g>
		</g>
		<g id="&lt;Group&gt;">
			<path id="&lt;Path&gt;" class="s6" d="m2137.3 243c19.5-10.6 337.6-63.9 344-27.8 0 0 38.4 202.5 19.1 209.5-12 4.4-143.4 22.1-242.7 30-20.7 32.3-46.3 65.4-54 69.7-8.4 4.7-3.7-31.5 2.7-66.5-33.1 1.3-56.4 0.4-59.9-4.5-13.9-19-28.7-199.7-9.2-210.4z"/>
			<g id="&lt;Group&gt;">
				<path id="&lt;Path&gt;" class="s2" d="m2400 324.7c2.8 9.5 12.8 15 22.4 12.2 9.5-2.8 15-12.9 12.2-22.4-2.9-9.6-12.9-15-22.4-12.2-9.6 2.8-15.1 12.8-12.2 22.4z"/>
				<path id="&lt;Path&gt;" class="s2" d="m2304.7 334c2.8 9.6 12.8 15 22.4 12.2 9.5-2.8 15-12.8 12.2-22.4-2.9-9.6-12.9-15-22.5-12.2-9.5 2.8-15 12.9-12.1 22.4z"/>
				<path id="&lt;Path&gt;" class="s2" d="m2205.9 344.4c2.8 9.5 12.8 15 22.4 12.2 9.6-2.9 15-12.9 12.2-22.4-2.8-9.6-12.9-15.1-22.4-12.2-9.6 2.8-15 12.8-12.2 22.4z"/>
			</g>
		</g>
		<path id="&lt;Path&gt;" class="s0" d="m427.2 760.8h-60.9c-2.2 0-4-1.8-4-4v-17.3c0-2.2 1.8-4 4-4h60.9c2.2 0 4 1.8 4 4v17.3c0 2.2-1.8 4-4 4z"/>
	</g>
</svg>